{"accessors":[{"bufferView":0,"byteOffset":0,"componentType":5126,"count":1986,"max":[31,16,31],"min":[-31,-17,-31],"normalized":false,"type":"VEC3"},{"bufferView":1,"byteOffset":0,"componentType":5126,"count":1986,"max":[0.999298691749573,0.0000647405249765143,0.999296247959137,1],"min":[-1,-1,-1,-1],"normalized":false,"type":"VEC4"},{"bufferView":2,"byteOffset":0,"componentType":5126,"count":1986,"max":[1,1,0.999296247959137],"min":[-1,-1,-1],"normalized":false,"type":"VEC3"},{"bufferView":3,"byteOffset":0,"componentType":5126,"count":1986,"max":[1,1],"min":[0,0],"normalized":false,"type":"VEC2"},{"bufferView":4,"byteOffset":0,"componentType":5123,"count":1986,"max":[1985],"min":[0],"normalized":false,"type":"SCALAR"},{"bufferView":5,"byteOffset":0,"componentType":5126,"count":1902,"max":[23.110330581665,21.9423027038574,23.110330581665],"min":[-23.110330581665,9.49999809265137,-23.110330581665],"normalized":false,"type":"VEC3"},{"bufferView":6,"byteOffset":0,"componentType":5126,"count":1902,"max":[0.999082624912262,0.0624619796872139,1,1],"min":[-0.99998497962952,-0.06924203783274,-1,-1],"normalized":false,"type":"VEC4"},{"bufferView":7,"byteOffset":0,"componentType":5126,"count":1902,"max":[0.980124413967133,1,0.980127215385437],"min":[-0.98012298345566,-1,-0.98011302947998],"normalized":false,"type":"VEC3"},{"bufferView":8,"byteOffset":0,"componentType":5126,"count":1902,"max":[1,0.885172128677368],"min":[0,0.0755165666341782],"normalized":false,"type":"VEC2"},{"bufferView":9,"byteOffset":0,"componentType":5123,"count":1902,"max":[1901],"min":[0],"normalized":false,"type":"SCALAR"},{"bufferView":10,"byteOffset":0,"componentType":5126,"count":1557,"max":[25.4366359710693,11,26],"min":[-26,-0.00000047683716,-26],"normalized":false,"type":"VEC3"},{"bufferView":11,"byteOffset":0,"componentType":5126,"count":1557,"max":[1,0.00967966765165329,0.993714690208435,1],"min":[-1,-1,-1,-1],"normalized":false,"type":"VEC4"},{"bufferView":12,"byteOffset":0,"componentType":5126,"count":1557,"max":[1,1,1],"min":[-1,-1,-1],"normalized":false,"type":"VEC3"},{"bufferView":13,"byteOffset":0,"componentType":5126,"count":1557,"max":[0.989166080951691,1],"min":[0,0],"normalized":false,"type":"VEC2"},{"bufferView":14,"byteOffset":0,"componentType":5123,"count":1557,"max":[1556],"min":[0],"normalized":false,"type":"SCALAR"},{"bufferView":15,"byteOffset":0,"componentType":5126,"count":438,"max":[19.0383529663086,2,-8],"min":[-19.0383529663086,0,-26],"normalized":false,"type":"VEC3"},{"bufferView":16,"byteOffset":0,"componentType":5126,"count":438,"max":[1,0.00359875173307955,1,1],"min":[-1,-0.00003374104926,-1,-1],"normalized":false,"type":"VEC4"},{"bufferView":17,"byteOffset":0,"componentType":5126,"count":438,"max":[1,1,1],"min":[-1,-1,-0.99929440021515],"normalized":false,"type":"VEC3"},{"bufferView":18,"byteOffset":0,"componentType":5126,"count":438,"max":[1,1],"min":[0,0],"normalized":false,"type":"VEC2"},{"bufferView":19,"byteOffset":0,"componentType":5123,"count":438,"max":[437],"min":[0],"normalized":false,"type":"SCALAR"},{"bufferView":20,"byteOffset":0,"componentType":5126,"count":369,"max":[5,10,31.5],"min":[-5.00000095367432,0,21.5],"normalized":false,"type":"VEC3"},{"bufferView":21,"byteOffset":0,"componentType":5126,"count":369,"max":[1,0.951078176498413,0.0032607524190098,1],"min":[-1,-1,-1,-1],"normalized":false,"type":"VEC4"},{"bufferView":22,"byteOffset":0,"componentType":5126,"count":369,"max":[1,1,1],"min":[-1,-1,-1],"normalized":false,"type":"VEC3"},{"bufferView":23,"byteOffset":0,"componentType":5126,"count":369,"max":[1,1],"min":[0,0],"normalized":false,"type":"VEC2"},{"bufferView":24,"byteOffset":0,"componentType":5123,"count":369,"max":[368],"min":[0],"normalized":false,"type":"SCALAR"},{"bufferView":25,"byteOffset":0,"componentType":5126,"count":990,"max":[29.0226898193359,11,23.1863040924072],"min":[-30,-0.00000023841858,-30],"normalized":false,"type":"VEC3"},{"bufferView":26,"byteOffset":0,"componentType":5126,"count":990,"max":[1,0.337779760360718,0.993714690208435,1],"min":[-0.99371844530106,-0.9848108291626,-1,-1],"normalized":false,"type":"VEC4"},{"bufferView":27,"byteOffset":0,"componentType":5126,"count":990,"max":[1,1,1],"min":[-0.9997466802597,-1,-0.99929440021515],"normalized":false,"type":"VEC3"},{"bufferView":28,"byteOffset":0,"componentType":5126,"count":990,"max":[0.983711540699005,1],"min":[0,0],"normalized":false,"type":"VEC2"},{"bufferView":29,"byteOffset":0,"componentType":5123,"count":990,"max":[989],"min":[0],"normalized":false,"type":"SCALAR"},{"bufferView":30,"byteOffset":0,"componentType":5126,"count":1578,"max":[22,0.5,22],"min":[-22,-0.5,-22],"normalized":false,"type":"VEC3"},{"bufferView":31,"byteOffset":0,"componentType":5126,"count":1578,"max":[1,0.000971441622823477,1,1],"min":[-0.99929738044739,-1,-1,-1],"normalized":false,"type":"VEC4"},{"bufferView":32,"byteOffset":0,"componentType":5126,"count":1578,"max":[0.999297440052032,1,0.999296247959137],"min":[-1,-1,-0.99929440021515],"normalized":false,"type":"VEC3"},{"bufferView":33,"byteOffset":0,"componentType":5126,"count":1578,"max":[1,1],"min":[0,0],"normalized":false,"type":"VEC2"},{"bufferView":34,"byteOffset":0,"componentType":5123,"count":1578,"max":[1577],"min":[0],"normalized":false,"type":"SCALAR"},{"bufferView":35,"byteOffset":0,"componentType":5126,"count":1560,"max":[30,0.5,30],"min":[-30,-0.5,-30],"normalized":false,"type":"VEC3"},{"bufferView":36,"byteOffset":0,"componentType":5126,"count":1560,"max":[0.999297499656677,0.00910001248121262,1,1],"min":[-1,-0.00097753154114,-1,-1],"normalized":false,"type":"VEC4"},{"bufferView":37,"byteOffset":0,"componentType":5126,"count":1560,"max":[1,1,1],"min":[-1,-1,-0.99929559230804],"normalized":false,"type":"VEC3"},{"bufferView":38,"byteOffset":0,"componentType":5126,"count":1560,"max":[1,1],"min":[0,0],"normalized":false,"type":"VEC2"},{"bufferView":39,"byteOffset":0,"componentType":5123,"count":1560,"max":[1559],"min":[0],"normalized":false,"type":"SCALAR"},{"bufferView":40,"byteOffset":0,"componentType":5126,"count":1608,"max":[22.1470127105713,0.500000059604645,23],"min":[-23,-0.5,-23],"normalized":false,"type":"VEC3"},{"bufferView":41,"byteOffset":0,"componentType":5126,"count":1608,"max":[0.999297499656677,0.000078325901995413,0.993714690208435,1],"min":[-0.9997473359108,-1,-1,-1],"normalized":false,"type":"VEC4"},{"bufferView":42,"byteOffset":0,"componentType":5126,"count":1608,"max":[0.999297440052032,1,0.999296247959137],"min":[-0.99929624795914,-1,-0.9997456073761],"normalized":false,"type":"VEC3"},{"bufferView":43,"byteOffset":0,"componentType":5126,"count":1608,"max":[1,1],"min":[0,0],"normalized":false,"type":"VEC2"},{"bufferView":44,"byteOffset":0,"componentType":5123,"count":1608,"max":[1607],"min":[0],"normalized":false,"type":"SCALAR"}],"asset":{"generator":"Godot Engine v4.3.stable.official@77dcf97d82cbfe4e4615475fa52ca03da645dbd8","version":"2.0"},"bufferViews":[{"buffer":0,"byteLength":23832,"byteOffset":0,"byteStride":12,"target":34962},{"buffer":0,"byteLength":31776,"byteOffset":23832,"byteStride":16,"target":34962},{"buffer":0,"byteLength":23832,"byteOffset":55608,"byteStride":12,"target":34962},{"buffer":0,"byteLength":15888,"byteOffset":79440,"byteStride":8,"target":34962},{"buffer":0,"byteLength":3972,"byteOffset":95328,"target":34963},{"buffer":0,"byteLength":22824,"byteOffset":99300,"byteStride":12,"target":34962},{"buffer":0,"byteLength":30432,"byteOffset":122124,"byteStride":16,"target":34962},{"buffer":0,"byteLength":22824,"byteOffset":152556,"byteStride":12,"target":34962},{"buffer":0,"byteLength":15216,"byteOffset":175380,"byteStride":8,"target":34962},{"buffer":0,"byteLength":3804,"byteOffset":190596,"target":34963},{"buffer":0,"byteLength":18684,"byteOffset":194400,"byteStride":12,"target":34962},{"buffer":0,"byteLength":24912,"byteOffset":213084,"byteStride":16,"target":34962},{"buffer":0,"byteLength":18684,"byteOffset":237996,"byteStride":12,"target":34962},{"buffer":0,"byteLength":12456,"byteOffset":256680,"byteStride":8,"target":34962},{"buffer":0,"byteLength":3114,"byteOffset":269136,"target":34963},{"buffer":0,"byteLength":5256,"byteOffset":272252,"byteStride":12,"target":34962},{"buffer":0,"byteLength":7008,"byteOffset":277508,"byteStride":16,"target":34962},{"buffer":0,"byteLength":5256,"byteOffset":284516,"byteStride":12,"target":34962},{"buffer":0,"byteLength":3504,"byteOffset":289772,"byteStride":8,"target":34962},{"buffer":0,"byteLength":876,"byteOffset":293276,"target":34963},{"buffer":0,"byteLength":4428,"byteOffset":294152,"byteStride":12,"target":34962},{"buffer":0,"byteLength":5904,"byteOffset":298580,"byteStride":16,"target":34962},{"buffer":0,"byteLength":4428,"byteOffset":304484,"byteStride":12,"target":34962},{"buffer":0,"byteLength":2952,"byteOffset":308912,"byteStride":8,"target":34962},{"buffer":0,"byteLength":738,"byteOffset":311864,"target":34963},{"buffer":0,"byteLength":11880,"byteOffset":312604,"byteStride":12,"target":34962},{"buffer":0,"byteLength":15840,"byteOffset":324484,"byteStride":16,"target":34962},{"buffer":0,"byteLength":11880,"byteOffset":340324,"byteStride":12,"target":34962},{"buffer":0,"byteLength":7920,"byteOffset":352204,"byteStride":8,"target":34962},{"buffer":0,"byteLength":1980,"byteOffset":360124,"target":34963},{"buffer":0,"byteLength":18936,"byteOffset":362104,"byteStride":12,"target":34962},{"buffer":0,"byteLength":25248,"byteOffset":381040,"byteStride":16,"target":34962},{"buffer":0,"byteLength":18936,"byteOffset":406288,"byteStride":12,"target":34962},{"buffer":0,"byteLength":12624,"byteOffset":425224,"byteStride":8,"target":34962},{"buffer":0,"byteLength":3156,"byteOffset":437848,"target":34963},{"buffer":0,"byteLength":18720,"byteOffset":441004,"byteStride":12,"target":34962},{"buffer":0,"byteLength":24960,"byteOffset":459724,"byteStride":16,"target":34962},{"buffer":0,"byteLength":18720,"byteOffset":484684,"byteStride":12,"target":34962},{"buffer":0,"byteLength":12480,"byteOffset":503404,"byteStride":8,"target":34962},{"buffer":0,"byteLength":3120,"byteOffset":515884,"target":34963},{"buffer":0,"byteLength":19296,"byteOffset":519004,"byteStride":12,"target":34962},{"buffer":0,"byteLength":25728,"byteOffset":538300,"byteStride":16,"target":34962},{"buffer":0,"byteLength":19296,"byteOffset":564028,"byteStride":12,"target":34962},{"buffer":0,"byteLength":12864,"byteOffset":583324,"byteStride":8,"target":34962},{"buffer":0,"byteLength":3216,"byteOffset":596188,"target":34963}],"buffers":[{"byteLength":599404,"uri":"stage_1_csg0.bin"}],"extensionsUsed":["GODOT_single_root"],"materials":[{"extensions":{},"pbrMetallicRoughness":{"baseColorFactor":[0.913098037242889,0.830770611763,0.830770611763,1],"metallicFactor":0.200000002980232,"roughnessFactor":0.600000023841858}}],"meshes":[{"extras":{"targetNames":[]},"primitives":[{"attributes":{"NORMAL":2,"POSITION":0,"TANGENT":1,"TEXCOORD_0":3},"indices":4,"material":0,"mode":4}]},{"extras":{"targetNames":[]},"primitives":[{"attributes":{"NORMAL":7,"POSITION":5,"TANGENT":6,"TEXCOORD_0":8},"indices":9,"material":0,"mode":4}]},{"extras":{"targetNames":[]},"primitives":[{"attributes":{"NORMAL":12,"POSITION":10,"TANGENT":11,"TEXCOORD_0":13},"indices":14,"material":0,"mode":4}]},{"extras":{"targetNames":[]},"primitives":[{"attributes":{"NORMAL":17,"POSITION":15,"TANGENT":16,"TEXCOORD_0":18},"indices":19,"material":0,"mode":4}]},{"extras":{"targetNames":[]},"primitives":[{"attributes":{"NORMAL":22,"POSITION":20,"TANGENT":21,"TEXCOORD_0":23},"indices":24,"material":0,"mode":4}]},{"extras":{"targetNames":[]},"primitives":[{"attributes":{"NORMAL":27,"POSITION":25,"TANGENT":26,"TEXCOORD_0":28},"indices":29,"material":0,"mode":4}]},{"extras":{"targetNames":[]},"primitives":[{"attributes":{"NORMAL":32,"POSITION":30,"TANGENT":31,"TEXCOORD_0":33},"indices":34,"material":0,"mode":4}]},{"extras":{"targetNames":[]},"primitives":[{"attributes":{"NORMAL":37,"POSITION":35,"TANGENT":36,"TEXCOORD_0":38},"indices":39,"material":0,"mode":4}]},{"extras":{"targetNames":[]},"primitives":[{"attributes":{"NORMAL":42,"POSITION":40,"TANGENT":41,"TEXCOORD_0":43},"indices":44,"material":0,"mode":4}]}],"nodes":[{"children":[1,7,12,30,53],"name":"Stage 1"},{"children":[2,3,4,5,6],"mesh":0,"name":"OuterWall2","translation":[0,16.5,0]},{"name":"Mesh","translation":[0,-0.5,0]},{"name":"Interior1","translation":[0,-11,0]},{"name":"Interior2","translation":[0,4,0]},{"name":"Interior3","translation":[0,11,0]},{"name":"Entry","translation":[0,-12,29.1480007171631]},{"children":[8,9,10,11],"mesh":1,"name":"Dome2","translation":[0,22,0]},{"name":"Mesh2"},{"name":"InteriorSphereCut"},{"name":"BottomCut","translation":[0,-8,0]},{"name":"TopCut","translation":[-0.00112628994975,26.9423007965088,-0.00826644990593]},{"children":[13,21,26],"name":"First Floor"},{"children":[14,15,16,17,18,19,20],"mesh":2,"name":"Stairs2"},{"name":"Mesh3","translation":[0,5.5,0]},{"name":"CentralCut","translation":[0,5.5,0]},{"name":"RampCut","rotation":[-0.1088670566678,0,0,0.994056344032288],"translation":[0,11.5,0]},{"name":"EntryCut","translation":[0,5,22.1657009124756]},{"name":"Jump1","rotation":[0,-0.23768600821495,0,0.971342027187347],"translation":[-20.1382007598877,2.5,-12]},{"name":"Jump2","rotation":[0,0.237686008214951,0,0.971342027187347],"translation":[-20,5,12]},{"name":"JumpDash","translation":[21.5,5,-3]},{"children":[22,23],"mesh":3,"name":"Landing2"},{"name":"CentralLanding","rotation":[0,-0.70710676908493,0,0.70710676908493],"translation":[-4,0,-23]},{"children":[24,25],"name":"StairLanding","translation":[0,1,0]},{"name":"CylinderCut"},{"name":"LandingStop","translation":[0,0,10]},{"children":[27],"mesh":4,"name":"Archway2"},{"children":[28,29],"name":"Mesh4","translation":[0,5,26.5]},{"name":"ArchCut","rotation":[0.70710676908493,0,0,0.70710676908493]},{"name":"BoxCut","translation":[0,-3,0]},{"children":[31,38,47],"name":"Second Floor","translation":[0,10.5,0]},{"children":[32,33,34,35,36,37],"mesh":5,"name":"2ndStairs2","translation":[0,0.5,0]},{"name":"Mesh5","translation":[0,5.5,0]},{"name":"CentralCut2","translation":[0,5.5,0]},{"name":"RampCut2","rotation":[0.108867056667805,0,0,0.994056344032288],"translation":[-0.1652449965477,12.7130002975464,0.493405997753143]},{"name":"BreakLeft","rotation":[-0.08298345655203,0.304531991481781,0.026643069460988,0.948506295681],"translation":[-24,3,11]},{"name":"BreakRight","rotation":[0.1285430341959,-0.17216247320175,0.0226655881851912,0.976382672786713],"translation":[27,5,2.5]},{"name":"BreakRight2","rotation":[-0.12940949201584,-0.12940947711468,-0.01703707873821,0.982962965965271],"translation":[26,5,-4.5]},{"children":[39,41,42,43,44,45,46],"mesh":6,"name":"2ndFloorInner2"},{"children":[40],"name":"Mesh6"},{"name":"CentralCut3"},{"name":"Hole1","rotation":[0.00280872453004122,0.0998556911945343,0.000420094351284206,0.994997918605804],"translation":[15.8206996917725,0.000922203005757183,9.18640041351318]},{"name":"Hole2","rotation":[0,0.243302136659622,0,0.969950556755066],"translation":[18.6329002380371,-0.00000095367398,6.21601009368896]},{"name":"Hole3","rotation":[0,-0.07428274303675,0,0.997237205505371],"translation":[14.5438003540039,-0.00000095367398,5.91459989547729]},{"name":"Hole4","rotation":[0,-0.24054144322872,0,0.970638871192932],"translation":[-11.1517000198364,0,-8.90520000457764]},{"name":"Hole5","rotation":[0,0.141471341252327,0,0.989942371845245],"translation":[-12.6444997787476,0,-10.9065999984741]},{"name":"Hole6","rotation":[0,-0.16047583520412,0,0.987039744853973],"translation":[-15.0495004653931,0,-11.3816995620728]},{"children":[48,50],"mesh":7,"name":"2ndFloorOuter2"},{"children":[49],"name":"MainMesh"},{"name":"CentralCut4"},{"children":[51,52],"name":"SubMesh"},{"name":"CentralCut5"},{"name":"StairCut","translation":[0,0,14]},{"children":[54],"name":"Third Floor","translation":[0,21,0]},{"children":[55,56,57,58,59,60,61,62],"mesh":8,"name":"3rdFloor2","translation":[0,0.5,0]},{"name":"ColumnRing"},{"name":"CentralCut6"},{"name":"Hole12","rotation":[0,-0.17491140961647,0,0.984584152698517],"translation":[5.45561981201172,0,19.5356998443604]},{"name":"Hole22","rotation":[0,0.258642137050629,0,0.965973198413849],"translation":[4.71684980392456,0,18.8595008850098]},{"name":"Hole32","rotation":[0,-0.17491140961647,0,0.984584152698517],"translation":[-16.6716003417969,0,-13.4159002304077]},{"name":"Hole42","rotation":[0,-0.42969164252281,0,0.902975678443909],"translation":[-14.9973001480103,0,-11.8584995269775]},{"name":"Hole52","rotation":[0,-0.24430029094219,0,0.969699621200562],"translation":[19.8880004882813,0,-4.97707986831665]},{"name":"Hole62","rotation":[0,-0.38036045432091,0,0.924838304519653],"translation":[21.1770000457764,0,1.43866002559662]}],"scene":0,"scenes":[{"nodes":[0]}]}