{"accessors":[{"bufferView":0,"byteOffset":0,"componentType":5126,"count":2688,"max":[23,20,23],"min":[-23,-20,-23],"normalized":false,"type":"VEC3"},{"bufferView":1,"byteOffset":0,"componentType":5126,"count":2688,"max":[0.999298691749573,0.000106824561953545,1,1],"min":[-0.99929749965668,-0.00004315968908,-1,-1],"normalized":false,"type":"VEC4"},{"bufferView":2,"byteOffset":0,"componentType":5126,"count":2688,"max":[0.999296247959137,1,0.999296247959137],"min":[-1,-1,-0.99929565191269],"normalized":false,"type":"VEC3"},{"bufferView":3,"byteOffset":0,"componentType":5126,"count":2688,"max":[1,1],"min":[0,0],"normalized":false,"type":"VEC2"},{"bufferView":4,"byteOffset":0,"componentType":5123,"count":2688,"max":[2687],"min":[0],"normalized":false,"type":"SCALAR"}],"asset":{"generator":"Godot Engine v4.3.stable.official@77dcf97d82cbfe4e4615475fa52ca03da645dbd8","version":"2.0"},"bufferViews":[{"buffer":0,"byteLength":32256,"byteOffset":0,"byteStride":12,"target":34962},{"buffer":0,"byteLength":43008,"byteOffset":32256,"byteStride":16,"target":34962},{"buffer":0,"byteLength":32256,"byteOffset":75264,"byteStride":12,"target":34962},{"buffer":0,"byteLength":21504,"byteOffset":107520,"byteStride":8,"target":34962},{"buffer":0,"byteLength":5376,"byteOffset":129024,"target":34963}],"buffers":[{"byteLength":134400,"uri":"stage_2_walls0.bin"}],"extensionsUsed":["GODOT_single_root"],"materials":[{"extensions":{},"pbrMetallicRoughness":{"baseColorFactor":[0.99999988079071,0.99999988079071,0.99999988079071,1],"metallicFactor":0,"roughnessFactor":1}}],"meshes":[{"extras":{"targetNames":[]},"primitives":[{"attributes":{"NORMAL":2,"POSITION":0,"TANGENT":1,"TEXCOORD_0":3},"indices":4,"material":0,"mode":4}]}],"nodes":[{"children":[1,2,3,4],"mesh":0,"name":"Walls2","translation":[0,8,0]},{"name":"Outer Wall"},{"name":"Inner Wall","translation":[0,6,0]},{"name":"Dome Window","translation":[0,-16,0]},{"name":"Dome Window2","translation":[0,-18,0]}],"scene":0,"scenes":[{"nodes":[0]}]}