{"accessors":[{"bufferView":0,"byteOffset":0,"componentType":5126,"count":804,"max":[31,5.5,31],"min":[-31,-5.5,-31],"normalized":false,"type":"VEC3"},{"bufferView":1,"byteOffset":0,"componentType":5126,"count":804,"max":[0.999296247959137,0.0000647405249765143,0.999296247959137,1],"min":[-1,-1,-1,-1],"normalized":false,"type":"VEC4"},{"bufferView":2,"byteOffset":0,"componentType":5126,"count":804,"max":[1,1,1],"min":[-1,-1,-1],"normalized":false,"type":"VEC3"},{"bufferView":3,"byteOffset":0,"componentType":5126,"count":804,"max":[1,1],"min":[0,0],"normalized":false,"type":"VEC2"},{"bufferView":4,"byteOffset":0,"componentType":5123,"count":804,"max":[803],"min":[0],"normalized":false,"type":"SCALAR"},{"bufferView":5,"byteOffset":0,"componentType":5126,"count":1557,"max":[25.4366359710693,11,26],"min":[-26,-0.00000047683716,-26],"normalized":false,"type":"VEC3"},{"bufferView":6,"byteOffset":0,"componentType":5126,"count":1557,"max":[1,0.00967966765165329,0.993714690208435,1],"min":[-1,-1,-1,-1],"normalized":false,"type":"VEC4"},{"bufferView":7,"byteOffset":0,"componentType":5126,"count":1557,"max":[1,1,1],"min":[-1,-1,-1],"normalized":false,"type":"VEC3"},{"bufferView":8,"byteOffset":0,"componentType":5126,"count":1557,"max":[0.989166080951691,1],"min":[0,0],"normalized":false,"type":"VEC2"},{"bufferView":9,"byteOffset":0,"componentType":5123,"count":1557,"max":[1556],"min":[0],"normalized":false,"type":"SCALAR"},{"bufferView":10,"byteOffset":0,"componentType":5126,"count":438,"max":[19.0383529663086,2,-8],"min":[-19.0383529663086,0,-26],"normalized":false,"type":"VEC3"},{"bufferView":11,"byteOffset":0,"componentType":5126,"count":438,"max":[1,0.00359875173307955,1,1],"min":[-1,-0.00003374104926,-1,-1],"normalized":false,"type":"VEC4"},{"bufferView":12,"byteOffset":0,"componentType":5126,"count":438,"max":[1,1,1],"min":[-1,-1,-0.99929440021515],"normalized":false,"type":"VEC3"},{"bufferView":13,"byteOffset":0,"componentType":5126,"count":438,"max":[1,1],"min":[0,0],"normalized":false,"type":"VEC2"},{"bufferView":14,"byteOffset":0,"componentType":5123,"count":438,"max":[437],"min":[0],"normalized":false,"type":"SCALAR"},{"bufferView":15,"byteOffset":0,"componentType":5126,"count":432,"max":[5,10,31.5],"min":[-5,0,21.5],"normalized":false,"type":"VEC3"},{"bufferView":16,"byteOffset":0,"componentType":5126,"count":432,"max":[0.996035575866699,0.965931534767151,0.592591166496277,1],"min":[-1,-1,-1,-1],"normalized":false,"type":"VEC4"},{"bufferView":17,"byteOffset":0,"componentType":5126,"count":432,"max":[1,1,1],"min":[-1,-1,-1],"normalized":false,"type":"VEC3"},{"bufferView":18,"byteOffset":0,"componentType":5126,"count":432,"max":[1,1],"min":[0,0],"normalized":false,"type":"VEC2"},{"bufferView":19,"byteOffset":0,"componentType":5123,"count":432,"max":[431],"min":[0],"normalized":false,"type":"SCALAR"},{"bufferView":20,"byteOffset":0,"componentType":5126,"count":990,"max":[29.0226898193359,11,23.1863040924072],"min":[-30,-0.00000023841858,-30],"normalized":false,"type":"VEC3"},{"bufferView":21,"byteOffset":0,"componentType":5126,"count":990,"max":[1,0.337779760360718,0.993714690208435,1],"min":[-0.99371844530106,-0.9848108291626,-1,-1],"normalized":false,"type":"VEC4"},{"bufferView":22,"byteOffset":0,"componentType":5126,"count":990,"max":[1,1,1],"min":[-0.9997466802597,-1,-0.99929440021515],"normalized":false,"type":"VEC3"},{"bufferView":23,"byteOffset":0,"componentType":5126,"count":990,"max":[0.983711540699005,1],"min":[0,0],"normalized":false,"type":"VEC2"},{"bufferView":24,"byteOffset":0,"componentType":5123,"count":990,"max":[989],"min":[0],"normalized":false,"type":"SCALAR"},{"bufferView":25,"byteOffset":0,"componentType":5126,"count":1707,"max":[22,0.5,21.6056442260742],"min":[-22,-0.5,-22],"normalized":false,"type":"VEC3"},{"bufferView":26,"byteOffset":0,"componentType":5126,"count":1707,"max":[0.999297499656677,0.000971441622823477,1,1],"min":[-1,-1,-1,-1],"normalized":false,"type":"VEC4"},{"bufferView":27,"byteOffset":0,"componentType":5126,"count":1707,"max":[1,1,1],"min":[-1,-1,-0.99929440021515],"normalized":false,"type":"VEC3"},{"bufferView":28,"byteOffset":0,"componentType":5126,"count":1707,"max":[1,1],"min":[0,0],"normalized":false,"type":"VEC2"},{"bufferView":29,"byteOffset":0,"componentType":5123,"count":1707,"max":[1706],"min":[0],"normalized":false,"type":"SCALAR"},{"bufferView":30,"byteOffset":0,"componentType":5126,"count":1944,"max":[30,0.5,30],"min":[-30,-0.5,-30],"normalized":false,"type":"VEC3"},{"bufferView":31,"byteOffset":0,"componentType":5126,"count":1944,"max":[1,0.00910001248121262,1,1],"min":[-1,-0.00097753154114,-1,-1],"normalized":false,"type":"VEC4"},{"bufferView":32,"byteOffset":0,"componentType":5126,"count":1944,"max":[1,1,1],"min":[-1,-1,-0.99929440021515],"normalized":false,"type":"VEC3"},{"bufferView":33,"byteOffset":0,"componentType":5126,"count":1944,"max":[1,1],"min":[0,0],"normalized":false,"type":"VEC2"},{"bufferView":34,"byteOffset":0,"componentType":5123,"count":1944,"max":[1943],"min":[0],"normalized":false,"type":"SCALAR"},{"bufferView":35,"byteOffset":0,"componentType":5126,"count":672,"max":[31,5.5,31],"min":[-31,-5.5,-31],"normalized":false,"type":"VEC3"},{"bufferView":36,"byteOffset":0,"componentType":5126,"count":672,"max":[0.999296247959137,0.0000647405249765143,0.999296247959137,1],"min":[-0.99929738044739,-0.00002157951531,-0.99929559230804,-1],"normalized":false,"type":"VEC4"},{"bufferView":37,"byteOffset":0,"componentType":5126,"count":672,"max":[0.999296247959137,1,0.999296247959137],"min":[-0.99929624795914,-1,-0.99929565191269],"normalized":false,"type":"VEC3"},{"bufferView":38,"byteOffset":0,"componentType":5126,"count":672,"max":[1,1],"min":[0,0],"normalized":false,"type":"VEC2"},{"bufferView":39,"byteOffset":0,"componentType":5123,"count":672,"max":[671],"min":[0],"normalized":false,"type":"SCALAR"},{"bufferView":40,"byteOffset":0,"componentType":5126,"count":1608,"max":[22.1470127105713,0.500000059604645,23],"min":[-23,-0.5,-23],"normalized":false,"type":"VEC3"},{"bufferView":41,"byteOffset":0,"componentType":5126,"count":1608,"max":[0.999297499656677,0.000078325901995413,0.993714690208435,1],"min":[-0.9997473359108,-1,-1,-1],"normalized":false,"type":"VEC4"},{"bufferView":42,"byteOffset":0,"componentType":5126,"count":1608,"max":[0.999297440052032,1,0.999296247959137],"min":[-0.99929624795914,-1,-0.9997456073761],"normalized":false,"type":"VEC3"},{"bufferView":43,"byteOffset":0,"componentType":5126,"count":1608,"max":[1,1],"min":[0,0],"normalized":false,"type":"VEC2"},{"bufferView":44,"byteOffset":0,"componentType":5123,"count":1608,"max":[1607],"min":[0],"normalized":false,"type":"SCALAR"},{"bufferView":45,"byteOffset":0,"componentType":5126,"count":1899,"max":[23.2097873687744,21.9423027038574,23.2097873687744],"min":[-23.2097873687744,8.99999713897705,-23.2097873687744],"normalized":false,"type":"VEC3"},{"bufferView":46,"byteOffset":0,"componentType":5126,"count":1899,"max":[0.999083995819092,0.0624303929507732,0.999984920024872,1],"min":[-0.99998497962952,-0.06924203783274,-1,-1],"normalized":false,"type":"VEC4"},{"bufferView":47,"byteOffset":0,"componentType":5126,"count":1899,"max":[0.980124413967133,1,0.980127215385437],"min":[-0.98012298345566,-1,-0.98011302947998],"normalized":false,"type":"VEC3"},{"bufferView":48,"byteOffset":0,"componentType":5126,"count":1899,"max":[1,0.886829614639282],"min":[0,0.0755165666341782],"normalized":false,"type":"VEC2"},{"bufferView":49,"byteOffset":0,"componentType":5123,"count":1899,"max":[1898],"min":[0],"normalized":false,"type":"SCALAR"},{"bufferView":50,"byteOffset":0,"componentType":5126,"count":1344,"max":[31,5.5,31],"min":[-31,-5.5,-31],"normalized":false,"type":"VEC3"},{"bufferView":51,"byteOffset":0,"componentType":5126,"count":1344,"max":[0.999296247959137,0.0000647405249765143,0.999296247959137,1],"min":[-0.99929749965668,-0.00004207820893,-0.99929678440094,-1],"normalized":false,"type":"VEC4"},{"bufferView":52,"byteOffset":0,"componentType":5126,"count":1344,"max":[0.999296247959137,1,0.999296247959137],"min":[-0.99929624795914,-1,-0.99929440021515],"normalized":false,"type":"VEC3"},{"bufferView":53,"byteOffset":0,"componentType":5126,"count":1344,"max":[1,1],"min":[0,0],"normalized":false,"type":"VEC2"},{"bufferView":54,"byteOffset":0,"componentType":5123,"count":1344,"max":[1343],"min":[0],"normalized":false,"type":"SCALAR"}],"asset":{"generator":"Godot Engine v4.3.stable.official@77dcf97d82cbfe4e4615475fa52ca03da645dbd8","version":"2.0"},"bufferViews":[{"buffer":0,"byteLength":9648,"byteOffset":0,"byteStride":12,"target":34962},{"buffer":0,"byteLength":12864,"byteOffset":9648,"byteStride":16,"target":34962},{"buffer":0,"byteLength":9648,"byteOffset":22512,"byteStride":12,"target":34962},{"buffer":0,"byteLength":6432,"byteOffset":32160,"byteStride":8,"target":34962},{"buffer":0,"byteLength":1608,"byteOffset":38592,"target":34963},{"buffer":0,"byteLength":18684,"byteOffset":40200,"byteStride":12,"target":34962},{"buffer":0,"byteLength":24912,"byteOffset":58884,"byteStride":16,"target":34962},{"buffer":0,"byteLength":18684,"byteOffset":83796,"byteStride":12,"target":34962},{"buffer":0,"byteLength":12456,"byteOffset":102480,"byteStride":8,"target":34962},{"buffer":0,"byteLength":3114,"byteOffset":114936,"target":34963},{"buffer":0,"byteLength":5256,"byteOffset":118052,"byteStride":12,"target":34962},{"buffer":0,"byteLength":7008,"byteOffset":123308,"byteStride":16,"target":34962},{"buffer":0,"byteLength":5256,"byteOffset":130316,"byteStride":12,"target":34962},{"buffer":0,"byteLength":3504,"byteOffset":135572,"byteStride":8,"target":34962},{"buffer":0,"byteLength":876,"byteOffset":139076,"target":34963},{"buffer":0,"byteLength":5184,"byteOffset":139952,"byteStride":12,"target":34962},{"buffer":0,"byteLength":6912,"byteOffset":145136,"byteStride":16,"target":34962},{"buffer":0,"byteLength":5184,"byteOffset":152048,"byteStride":12,"target":34962},{"buffer":0,"byteLength":3456,"byteOffset":157232,"byteStride":8,"target":34962},{"buffer":0,"byteLength":864,"byteOffset":160688,"target":34963},{"buffer":0,"byteLength":11880,"byteOffset":161552,"byteStride":12,"target":34962},{"buffer":0,"byteLength":15840,"byteOffset":173432,"byteStride":16,"target":34962},{"buffer":0,"byteLength":11880,"byteOffset":189272,"byteStride":12,"target":34962},{"buffer":0,"byteLength":7920,"byteOffset":201152,"byteStride":8,"target":34962},{"buffer":0,"byteLength":1980,"byteOffset":209072,"target":34963},{"buffer":0,"byteLength":20484,"byteOffset":211052,"byteStride":12,"target":34962},{"buffer":0,"byteLength":27312,"byteOffset":231536,"byteStride":16,"target":34962},{"buffer":0,"byteLength":20484,"byteOffset":258848,"byteStride":12,"target":34962},{"buffer":0,"byteLength":13656,"byteOffset":279332,"byteStride":8,"target":34962},{"buffer":0,"byteLength":3414,"byteOffset":292988,"target":34963},{"buffer":0,"byteLength":23328,"byteOffset":296404,"byteStride":12,"target":34962},{"buffer":0,"byteLength":31104,"byteOffset":319732,"byteStride":16,"target":34962},{"buffer":0,"byteLength":23328,"byteOffset":350836,"byteStride":12,"target":34962},{"buffer":0,"byteLength":15552,"byteOffset":374164,"byteStride":8,"target":34962},{"buffer":0,"byteLength":3888,"byteOffset":389716,"target":34963},{"buffer":0,"byteLength":8064,"byteOffset":393604,"byteStride":12,"target":34962},{"buffer":0,"byteLength":10752,"byteOffset":401668,"byteStride":16,"target":34962},{"buffer":0,"byteLength":8064,"byteOffset":412420,"byteStride":12,"target":34962},{"buffer":0,"byteLength":5376,"byteOffset":420484,"byteStride":8,"target":34962},{"buffer":0,"byteLength":1344,"byteOffset":425860,"target":34963},{"buffer":0,"byteLength":19296,"byteOffset":427204,"byteStride":12,"target":34962},{"buffer":0,"byteLength":25728,"byteOffset":446500,"byteStride":16,"target":34962},{"buffer":0,"byteLength":19296,"byteOffset":472228,"byteStride":12,"target":34962},{"buffer":0,"byteLength":12864,"byteOffset":491524,"byteStride":8,"target":34962},{"buffer":0,"byteLength":3216,"byteOffset":504388,"target":34963},{"buffer":0,"byteLength":22788,"byteOffset":507604,"byteStride":12,"target":34962},{"buffer":0,"byteLength":30384,"byteOffset":530392,"byteStride":16,"target":34962},{"buffer":0,"byteLength":22788,"byteOffset":560776,"byteStride":12,"target":34962},{"buffer":0,"byteLength":15192,"byteOffset":583564,"byteStride":8,"target":34962},{"buffer":0,"byteLength":3798,"byteOffset":598756,"target":34963},{"buffer":0,"byteLength":16128,"byteOffset":602556,"byteStride":12,"target":34962},{"buffer":0,"byteLength":21504,"byteOffset":618684,"byteStride":16,"target":34962},{"buffer":0,"byteLength":16128,"byteOffset":640188,"byteStride":12,"target":34962},{"buffer":0,"byteLength":10752,"byteOffset":656316,"byteStride":8,"target":34962},{"buffer":0,"byteLength":2688,"byteOffset":667068,"target":34963}],"buffers":[{"byteLength":669756,"uri":"stage_1_csg0.bin"}],"extensionsUsed":["GODOT_single_root"],"materials":[{"extensions":{},"pbrMetallicRoughness":{"baseColorFactor":[0.99999988079071,0.99999988079071,0.99999988079071,1],"metallicFactor":0,"roughnessFactor":1}},{"extensions":{},"pbrMetallicRoughness":{"baseColorFactor":[0.99999988079071,0.99999988079071,0.99999988079071,1],"metallicFactor":0,"roughnessFactor":1}},{"extensions":{},"pbrMetallicRoughness":{"baseColorFactor":[0.99999988079071,0.99999988079071,0.99999988079071,1],"metallicFactor":0,"roughnessFactor":1}},{"extensions":{},"pbrMetallicRoughness":{"baseColorFactor":[0.99999988079071,0.99999988079071,0.99999988079071,1],"metallicFactor":0,"roughnessFactor":1}},{"extensions":{},"pbrMetallicRoughness":{"baseColorFactor":[0.99999988079071,0.99999988079071,0.99999988079071,1],"metallicFactor":0,"roughnessFactor":1}},{"extensions":{},"pbrMetallicRoughness":{"baseColorFactor":[0.99999988079071,0.99999988079071,0.99999988079071,1],"metallicFactor":0,"roughnessFactor":1}},{"extensions":{},"pbrMetallicRoughness":{"baseColorFactor":[0.99999988079071,0.99999988079071,0.99999988079071,1],"metallicFactor":0,"roughnessFactor":1}},{"extensions":{},"pbrMetallicRoughness":{"baseColorFactor":[0.99999988079071,0.99999988079071,0.99999988079071,1],"metallicFactor":0,"roughnessFactor":1}},{"extensions":{},"pbrMetallicRoughness":{"baseColorFactor":[0.99999988079071,0.99999988079071,0.99999988079071,1],"metallicFactor":0,"roughnessFactor":1}},{"extensions":{},"pbrMetallicRoughness":{"baseColorFactor":[0.99999988079071,0.99999988079071,0.99999988079071,1],"metallicFactor":0,"roughnessFactor":1}},{"extensions":{},"pbrMetallicRoughness":{"baseColorFactor":[0.99999988079071,0.99999988079071,0.99999988079071,1],"metallicFactor":0,"roughnessFactor":1}}],"meshes":[{"extras":{"targetNames":[]},"primitives":[{"attributes":{"NORMAL":2,"POSITION":0,"TANGENT":1,"TEXCOORD_0":3},"indices":4,"material":0,"mode":4}]},{"extras":{"targetNames":[]},"primitives":[{"attributes":{"NORMAL":7,"POSITION":5,"TANGENT":6,"TEXCOORD_0":8},"indices":9,"material":1,"mode":4}]},{"extras":{"targetNames":[]},"primitives":[{"attributes":{"NORMAL":12,"POSITION":10,"TANGENT":11,"TEXCOORD_0":13},"indices":14,"material":2,"mode":4}]},{"extras":{"targetNames":[]},"primitives":[{"attributes":{"NORMAL":17,"POSITION":15,"TANGENT":16,"TEXCOORD_0":18},"indices":19,"material":3,"mode":4}]},{"extras":{"targetNames":[]},"primitives":[{"attributes":{"NORMAL":22,"POSITION":20,"TANGENT":21,"TEXCOORD_0":23},"indices":24,"material":4,"mode":4}]},{"extras":{"targetNames":[]},"primitives":[{"attributes":{"NORMAL":27,"POSITION":25,"TANGENT":26,"TEXCOORD_0":28},"indices":29,"material":5,"mode":4}]},{"extras":{"targetNames":[]},"primitives":[{"attributes":{"NORMAL":32,"POSITION":30,"TANGENT":31,"TEXCOORD_0":33},"indices":34,"material":6,"mode":4}]},{"extras":{"targetNames":[]},"primitives":[{"attributes":{"NORMAL":37,"POSITION":35,"TANGENT":36,"TEXCOORD_0":38},"indices":39,"material":7,"mode":4}]},{"extras":{"targetNames":[]},"primitives":[{"attributes":{"NORMAL":42,"POSITION":40,"TANGENT":41,"TEXCOORD_0":43},"indices":44,"material":8,"mode":4}]},{"extras":{"targetNames":[]},"primitives":[{"attributes":{"NORMAL":47,"POSITION":45,"TANGENT":46,"TEXCOORD_0":48},"indices":49,"material":9,"mode":4}]},{"extras":{"targetNames":[]},"primitives":[{"attributes":{"NORMAL":52,"POSITION":50,"TANGENT":51,"TEXCOORD_0":53},"indices":54,"material":10,"mode":4}]}],"nodes":[{"children":[1,23,51],"name":"Stage 1"},{"children":[2,6,14,19],"name":"First Floor"},{"children":[3,4,5],"mesh":0,"name":"OuterWall2","translation":[0,5.5,0]},{"name":"Mesh"},{"name":"Interior"},{"name":"Entry","translation":[0,-1,29.1480007171631]},{"children":[7,8,9,10,11,12,13],"mesh":1,"name":"Stairs2"},{"name":"Mesh2","translation":[0,5.5,0]},{"name":"CentralCut","translation":[0,5.5,0]},{"name":"RampCut","rotation":[-0.1088670566678,0,0,0.994056344032288],"translation":[0,11.5,0]},{"name":"EntryCut","translation":[0,5,22.1657009124756]},{"name":"Jump1","rotation":[0,-0.23768600821495,0,0.971342027187347],"translation":[-20.1382007598877,2.5,-12]},{"name":"Jump2","rotation":[0,0.237686008214951,0,0.971342027187347],"translation":[-20,5,12]},{"name":"JumpDash","translation":[21.5,5,-3]},{"children":[15,16],"mesh":2,"name":"Landing2"},{"name":"CentralLanding","rotation":[0,-0.70710676908493,0,0.70710676908493],"translation":[-4,0,-23]},{"children":[17,18],"name":"StairLanding","translation":[0,1,0]},{"name":"CylinderCut"},{"name":"LandingStop","translation":[0,0,10]},{"children":[20],"mesh":3,"name":"Archway2"},{"children":[21,22],"name":"Mesh3","translation":[0,5,26.5]},{"name":"ArchCut","rotation":[0.70710676908493,0,0,0.70710676908493]},{"name":"BoxCut","translation":[0,-2.5,0]},{"children":[24,31,41,48],"name":"Second Floor","translation":[0,10.5,0]},{"children":[25,26,27,28,29,30],"mesh":4,"name":"2ndStairs2","translation":[0,0.5,0]},{"name":"Mesh4","translation":[0,5.5,0]},{"name":"CentralCut2","translation":[0,5.5,0]},{"name":"RampCut2","rotation":[0.108867056667805,0,0,0.994056344032288],"translation":[-0.1652449965477,12.7130002975464,0.493405997753143]},{"name":"BreakLeft","rotation":[-0.08298345655203,0.304531991481781,0.026643069460988,0.948506295681],"translation":[-24,3,11]},{"name":"BreakRight","rotation":[0.1285430341959,-0.17216247320175,0.0226655881851912,0.976382672786713],"translation":[27,5,2.5]},{"name":"BreakRight2","rotation":[-0.12940949201584,-0.12940947711468,-0.01703707873821,0.982962965965271],"translation":[26,5,-4.5]},{"children":[32,35,36,37,38,39,40],"mesh":5,"name":"2ndFloorInner2"},{"children":[33,34],"name":"Mesh5"},{"name":"CentralCut3"},{"name":"LandingCut","translation":[0,0,20]},{"name":"Hole1","rotation":[0.00280872453004122,0.0998556911945343,0.000420094351284206,0.994997918605804],"translation":[15.8206996917725,0.000922203005757183,9.18640041351318]},{"name":"Hole2","rotation":[0,0.243302136659622,0,0.969950556755066],"translation":[18.6329002380371,-0.00000095367398,6.21601009368896]},{"name":"Hole3","rotation":[0,-0.07428274303675,0,0.997237205505371],"translation":[14.5438003540039,-0.00000095367398,5.91459989547729]},{"name":"Hole4","rotation":[0,-0.24054144322872,0,0.970638871192932],"translation":[-11.1517000198364,0,-8.90520000457764]},{"name":"Hole5","rotation":[0,0.141471341252327,0,0.989942371845245],"translation":[-12.6444997787476,0,-10.9065999984741]},{"name":"Hole6","rotation":[0,-0.16047583520412,0,0.987039744853973],"translation":[-15.0495004653931,0,-11.3816995620728]},{"children":[42,44,47],"mesh":6,"name":"2ndFloorOuter2"},{"children":[43],"name":"MainMesh"},{"name":"CentralCut4"},{"children":[45,46],"name":"SubMesh"},{"name":"CentralCut5"},{"name":"StairCut","translation":[0,0,14]},{"name":"2ndLanding","translation":[0,0,21]},{"children":[49,50],"mesh":7,"name":"OuterWall4","translation":[0,6,0]},{"name":"Mesh6"},{"name":"Interior2"},{"children":[52,61,66],"name":"Third Floor","translation":[0,21,0]},{"children":[53,54,55,56,57,58,59,60],"mesh":8,"name":"3rdFloor2","translation":[0,0.5,0]},{"name":"ColumnRing"},{"name":"CentralCut6"},{"name":"Hole12","rotation":[0,-0.17491140961647,0,0.984584152698517],"translation":[5.45561981201172,0,19.5356998443604]},{"name":"Hole22","rotation":[0,0.258642137050629,0,0.965973198413849],"translation":[4.71684980392456,0,18.8595008850098]},{"name":"Hole32","rotation":[0,-0.17491140961647,0,0.984584152698517],"translation":[-16.6716003417969,0,-13.4159002304077]},{"name":"Hole42","rotation":[0,-0.42969164252281,0,0.902975678443909],"translation":[-14.9973001480103,0,-11.8584995269775]},{"name":"Hole52","rotation":[0,-0.24430029094219,0,0.969699621200562],"translation":[19.8880004882813,0,-4.97707986831665]},{"name":"Hole62","rotation":[0,-0.38036045432091,0,0.924838304519653],"translation":[21.1770000457764,0,1.43866002559662]},{"children":[62,63,64,65],"mesh":9,"name":"Dome2","translation":[0,1,0]},{"name":"CSGSphere3D"},{"name":"CSGSphere3D2"},{"name":"CSGBox3D","translation":[0,-11,0]},{"name":"CSGBox3D2","translation":[-0.00112628994975,26.9423007965088,-0.00826644990593]},{"children":[67,68,69],"mesh":10,"name":"OuterWall6","translation":[0,6.5,0]},{"name":"Mesh7"},{"name":"Interior3","translation":[0,-2,0]},{"name":"Interior22"}],"scene":0,"scenes":[{"nodes":[0]}]}